<?xml version="1.0" encoding="UTF-8"?>
<svg id="logo_Marketplace" data-name="logo Marketplace" xmlns="http://www.w3.org/2000/svg" viewBox="0 0 1920 1080">
  <defs>
    <style>
      .cls-1 {
        fill: #0c4156;
      }

      .cls-2 {
        letter-spacing: .04em;
      }

      .cls-3 {
        letter-spacing: .05em;
      }

      .cls-4 {
        letter-spacing: .05em;
      }

      .cls-5, .cls-6 {
        fill: #002846;
      }

      .cls-7 {
        fill: #a49375;
      }

      .cls-8 {
        fill: #2a838a;
      }

      .cls-6 {
        font-family: Rubik-Regular, Rubik;
        font-size: 140px;
      }
    </style>
  </defs>
  <text class="cls-6" transform="translate(588.14 791.83) scale(.7)"><tspan class="cls-3" x="0" y="0">MARKETPL</tspan><tspan class="cls-2" x="771.39" y="0">A</tspan><tspan class="cls-4" x="870.38" y="0">CE</tspan></text>
  <g>
    <path class="cls-5" d="m441.99,527.13h-40.75v123.53h-57.28v-322.79h105.07c70.03,0,115.23,36.29,115.23,98.67,0,66.83-48.4,100.58-122.26,100.58Zm1.28-150.87h-42.03v103.13h40.75c41.39,0,66.22-15.26,66.22-51.54,0-33.77-23.56-51.59-64.95-51.59Z"/>
    <path class="cls-5" d="m704.25,650.66c-37.18,0-75.59-9.92-107.82-23.54l8.07-50.19c29.72,15.48,70.01,27.88,102.23,27.88,35.94,0,61.32-16.12,61.32-42.73s-16.71-35.96-61.95-51.43c-65.66-22.91-99.14-43.35-99.14-92.32,0-53.88,44.61-90.45,105.34-90.45,35.95,0,67.53,8.05,91.06,18.58l-8.04,51.43c-28.51-14.87-56.37-23.55-84.88-23.55-30.98,0-52.05,16.75-52.05,37.18,0,24.17,17.35,32.84,66.3,49.57,65.67,22.93,94.78,45.25,94.78,94.18,0,58.23-46.44,95.41-115.23,95.41Z"/>
    <path class="cls-5" d="m1055.35,650.66l-92.48-127.08h-34.6v123.34h-56.66v-319.05h98.82c72.96,0,120.2,35.24,120.2,98.17,0,47.19-26.46,76.79-66.72,90.64l89.96,120.79-58.53,13.19Zm-85.55-273.71h-41.53v102.58h41.53c40.9,0,64.2-18.87,64.2-52.84,0-32.11-22.67-49.74-64.2-49.74Z"/>
    <path class="cls-5" d="m1201.8,650.66h-57.28v-322.79h57.28v322.79Z"/>
    <g>
      <g>
        <path class="cls-5" d="m1500.89,490.04c-.45,19.83-6.78,38.21-17.29,53.47l46.87,31.39c17.09-24.07,27.22-53.02,27.81-83.89l-57.39-.97Z"/>
        <path class="cls-5" d="m1424.63,583.68c-7.35,1.77-15.03,2.72-22.93,2.72-48.22,0-88.26-35.01-96.1-80.99-1.04-5.73-1.58-11.64-1.58-17.67,0-50.43,37.92-92,86.8-97.76l-6.74-63.4c-81.07,9.19-144.06,77.99-144.06,161.51,0,89.78,72.78,162.57,162.57,162.57,50.86,0,96.26-23.36,126.07-59.93l-50.09-40.52c-13.57,16.5-32.4,28.52-53.93,33.47Z"/>
      </g>
      <path class="cls-8" d="m1483.85,543.14c-13.76,20.17-34.82,34.97-59.38,40.58-1.11.27-2.23.52-3.36.75l15.6,75.5c46.55-10.02,85.56-37.71,110.33-74.91l-63.19-41.91Z"/>
      <path class="cls-1" d="m1511.09,352.95l-47.1,57.93c22.51,18.04,36.93,45.76,36.93,76.86,0,3.41-.17,6.78-.51,10.1l74.81,7.44c.54-5.58.83-11.23.83-16.95,0-54.76-25.32-103.59-64.95-135.38Z"/>
      <path class="cls-7" d="m1517.73,344.79c-30.77-24.25-69.6-38.72-111.82-38.72-8.11,0-16.09.54-23.92,1.58l8.76,82.35c3.85-.46,7.76-.7,11.73-.7,23.28,0,44.67,8.08,61.52,21.59l53.74-66.09Z"/>
    </g>
  </g>
</svg>