<?xml version="1.0" encoding="utf-8"?>
<!-- Generator: Adobe Illustrator 28.1.0, SVG Export Plug-In . SVG Version: 6.00 Build 0)  -->
<svg version="1.1" id="Versão_Letras_coloridas" xmlns="http://www.w3.org/2000/svg" xmlns:xlink="http://www.w3.org/1999/xlink"
	 x="0px" y="0px" viewBox="0 0 829.9 806.1" style="enable-background:new 0 0 829.9 806.1;" xml:space="preserve">
<style type="text/css">
	.st0{fill:#D4262C;}
</style>
<path class="st0" d="M809.9,168.6c-13.3-35.5-32.5-65.6-57.7-90.4c-25.1-24.8-56-44-92.6-57.7C623.1,6.9,581.5,0,534.9,0H0v806.1
	h159.3V151.4h354.5c49.5,0,88.2,13.7,115.9,41c27.7,27.4,41.6,53.8,41.6,100.3s-12.8,83.9-41.6,110.9c-18,16.8-32,25.6-84.2,31.6
	H472l-170,147h233c46.6,0,88.2-7.2,124.8-21.6c36.6-14.4,67.5-34.5,92.6-60.4c25.1-25.9,44.3-56.7,57.7-92.6
	c13.3-35.8,20-75.6,20-119.2S823.2,204,809.9,168.6L809.9,168.6z"/>
</svg>
