<?xml version="1.0" encoding="utf-8"?>
<!-- Generator: Adobe Illustrator 28.1.0, SVG Export Plug-In . SVG Version: 6.00 Build 0)  -->
<svg version="1.1" id="Versão_Letras_coloridas" xmlns="http://www.w3.org/2000/svg" xmlns:xlink="http://www.w3.org/1999/xlink"
	 x="0px" y="0px" viewBox="0 0 880.4 810" style="enable-background:new 0 0 880.4 810;" xml:space="preserve">
<style type="text/css">
	.st0{fill:#E8494B;}
</style>
<path class="st0" d="M206.2,555.5c-29.2-41.1-46.1-93.2-46.1-152.2c0-141,98.2-243.3,233.6-243.3h438V0h-438
	C161.9,0,0,163.2,0,396.9c0,99.5,30.3,188.6,82.1,258.4L206.2,555.5L206.2,555.5z"/>
<path class="st0" d="M669.8,329.3L497.7,467.7h221.6v182.2H393.6c-35.4,0-68.2-7.2-97.4-20.3L163.6,736.3
	C227.5,783,306.3,810,393.6,810h486.8V329.3L669.8,329.3L669.8,329.3z"/>
</svg>
