<?xml version="1.0" encoding="utf-8"?>
<!-- Generator: Adobe Illustrator 28.1.0, SVG Export Plug-In . SVG Version: 6.00 Build 0)  -->
<svg version="1.1" id="Versão_Letras_coloridas" xmlns="http://www.w3.org/2000/svg" xmlns:xlink="http://www.w3.org/1999/xlink"
	 x="0px" y="0px" viewBox="0 0 881.7 810" style="enable-background:new 0 0 881.7 810;" xml:space="preserve">
<style type="text/css">
	.st0{fill:#FFFFFF;}
</style>
<path class="st0" d="M207.4,555.5c-29.2-41.1-46.1-93.2-46.1-152.2c0-141,98.2-243.3,233.6-243.3h438V0h-438
	C163.1,0,1.3,163.2,1.3,396.9c0,99.5,30.3,188.6,82.1,258.4L207.4,555.5L207.4,555.5z"/>
<path class="st0" d="M671,329.3L498.9,467.7h221.6v182.2H394.8c-35.4,0-68.2-7.2-97.4-20.3L164.8,736.3
	C228.7,783,307.6,810,394.9,810h486.8V329.3H671L671,329.3z"/>
</svg>
