<?xml version="1.0" encoding="utf-8"?>
<!-- Generator: Adobe Illustrator 28.1.0, SVG Export Plug-In . SVG Version: 6.00 Build 0)  -->
<svg version="1.1" id="logo_Marketplace" xmlns="http://www.w3.org/2000/svg" xmlns:xlink="http://www.w3.org/1999/xlink" x="0px"
	 y="0px" viewBox="0 0 431.5 353.9" style="enable-background:new 0 0 431.5 353.9;" xml:space="preserve">
<style type="text/css">
	.st0{fill:#FFFFFF;}
	.st1{fill:#2A838A;}
	.st2{fill:#0C4156;}
	.st3{fill:#A49375;}
</style>
<path class="st0" d="M57.3,344.6H0V21.8h57.3V344.6z"/>
<g>
	<path class="st0" d="M356.4,184c-0.4,19.8-6.8,38.2-17.3,53.5l46.9,31.4c17.1-24.1,27.2-53,27.8-83.9L356.4,184z"/>
	<path class="st0" d="M280.1,277.6c-7.3,1.8-15,2.7-22.9,2.7c-48.2,0-88.3-35-96.1-81c-1-5.7-1.6-11.6-1.6-17.7
		c0-50.4,37.9-92,86.8-97.8l-6.7-63.4C158.5,29.7,95.5,98.5,95.5,182c0,89.8,72.8,162.6,162.6,162.6c50.9,0,96.3-23.4,126.1-59.9
		l-50.1-40.5C320.5,260.6,301.7,272.7,280.1,277.6L280.1,277.6z"/>
</g>
<path class="st1" d="M339.3,237.1c-13.8,20.2-34.8,35-59.4,40.6c-1.1,0.3-2.2,0.5-3.4,0.8l15.6,75.5c46.6-10,85.6-37.7,110.3-74.9
	L339.3,237.1L339.3,237.1z"/>
<path class="st2" d="M366.6,46.9l-47.1,57.9c22.5,18,36.9,45.8,36.9,76.9c0,3.4-0.2,6.8-0.5,10.1l74.8,7.4c0.5-5.6,0.8-11.2,0.8-17
	C431.5,127.5,406.2,78.7,366.6,46.9L366.6,46.9z"/>
<path class="st3" d="M373.2,38.7C342.4,14.5,303.6,0,261.4,0c-8.1,0-16.1,0.5-23.9,1.6l8.8,82.4c3.8-0.5,7.8-0.7,11.7-0.7
	c23.3,0,44.7,8.1,61.5,21.6L373.2,38.7L373.2,38.7z"/>
</svg>
