<svg width="772" height="720" xmlns="http://www.w3.org/2000/svg" xmlns:xlink="http://www.w3.org/1999/xlink" xml:space="preserve" overflow="hidden"><g transform="translate(-254 0)"><path d="M224.679 417.879 232.726 417.879 391.676 290.08 225.603 290.08C178.606 290.08 151.657 264.143 151.657 218.932 151.657 173.721 178.97 146.843 226.606 146.843L737.563 146.843 737.563 0 226.615 0C88.9567 0 0 81.4511 0 207.509 0 333.568 90.2979 417.888 224.679 417.888L224.679 417.888Z" fill="#FFFFFF" transform="matrix(1 0 0 1.00058 254 0.0624321)"/><path d="M553.175 290.39 394.607 417.879 543.422 417.879C602.027 417.879 631.748 443.753 631.748 494.791 631.748 545.829 599.558 572.538 543.422 572.538L10.49 572.538 10.49 719.461 543.431 719.461C684.411 719.461 772 636.642 772 503.336 772 370.03 696.269 293.615 553.175 290.39L553.175 290.39Z" fill="#FFFFFF" transform="matrix(1 0 0 1.00058 254 0.0624321)"/></g></svg>