<?xml version="1.0" encoding="utf-8"?>
<!-- Generator: Adobe Illustrator 28.1.0, SVG Export Plug-In . SVG Version: 6.00 Build 0)  -->
<svg version="1.1" id="Versão_Letras_coloridas" xmlns="http://www.w3.org/2000/svg" xmlns:xlink="http://www.w3.org/1999/xlink"
	 x="0px" y="0px" viewBox="0 0 869.1 810" style="enable-background:new 0 0 869.1 810;" xml:space="preserve">
<style type="text/css">
	.st0{fill:#D4262C;}
</style>
<path class="st0" d="M253,470.5h9.1l179-143.9H254c-52.9,0-83.2-29.2-83.2-80.1s30.8-81.2,84.4-81.2h575.2V0H255.1
	C100.2,0,0,91.7,0,233.6S101.7,470.5,253,470.5L253,470.5z"/>
<path class="st0" d="M622.8,326.9L444.3,470.5h167.5c66,0,99.4,29.1,99.4,86.6s-36.2,87.5-99.4,87.5h-600V810h600
	c158.7,0,257.3-93.2,257.3-243.3S783.9,330.6,622.8,326.9L622.8,326.9z"/>
</svg>
